<svg width="368" height="329" viewBox="0 0 368 329" fill="none" xmlns="http://www.w3.org/2000/svg">
<path fill-rule="evenodd" clip-rule="evenodd" d="M27.8798 125.164C57.4196 90.7032 95.375 64.2978 137.779 53.6465C134.707 41.6988 128.463 30.3508 119.061 20.9483C91.479 -6.63343 47.1564 -7.02963 20.0634 20.0634C-7.02963 47.1564 -6.63343 91.479 20.9483 119.061C23.1573 121.27 25.4736 123.304 27.8798 125.164ZM334.377 130.475C339.222 127.612 343.784 124.102 347.94 119.946C375.034 92.8527 374.637 48.5301 347.056 20.9483C319.474 -6.63341 275.151 -7.0296 248.058 20.0634C237.855 30.2663 231.551 42.9127 229.129 56.1882C269.987 68.7945 306.31 95.9633 334.377 130.475Z" fill="black"/>
<path d="M234 277.5C234 305.114 211.614 328.5 184 328.5C156.386 328.5 134 305.114 134 277.5C134 249.886 156.386 240 184 240C211.614 240 234 249.886 234 277.5Z" fill="black"/>
<path d="M170.988 183.779C178.127 217.833 140.054 183.362 106 190.5C71.9461 197.638 54.8066 243.682 47.6685 209.628C40.5304 175.574 60.6061 133.862 94.66 126.724C128.714 119.586 163.85 149.725 170.988 183.779Z" fill="black"/>
<path d="M196.687 183.779C189.549 217.833 227.621 183.362 261.675 190.5C295.729 197.638 312.869 243.682 320.007 209.628C327.145 175.574 307.069 133.862 273.015 126.724C238.961 119.586 203.825 149.725 196.687 183.779Z" fill="black"/>
</svg>
